<?xml version="1.0" encoding="UTF-8" standalone="no"?>
<!DOCTYPE svg PUBLIC "-//W3C//DTD SVG 1.1//EN"
 "http://www.w3.org/Graphics/SVG/1.1/DTD/svg11.dtd">
<!-- Generated by graphviz version 8.1.0 (20230707.0739)
 -->
<!-- Title: gr&#45;0003 Pages: 1 -->
<svg width="1028pt" height="510pt"
 viewBox="0.00 0.00 1027.96 509.87" xmlns="http://www.w3.org/2000/svg" xmlns:xlink="http://www.w3.org/1999/xlink">
<g id="graph0" class="graph" transform="scale(1 1) rotate(0) translate(4 505.87)">
<title>gr&#45;0003</title>
<polygon fill="white" stroke="none" points="-4,4 -4,-505.87 1023.96,-505.87 1023.96,4 -4,4"/>
<!-- control_input -->
<g id="node1" class="node">
<title>control_input</title>
<ellipse fill="none" stroke="blue" stroke-width="2" cx="355.79" cy="-243.03" rx="42" ry="18"/>
<text text-anchor="middle" x="355.79" y="-240.46" font-family="sans" font-size="11.00">control_input</text>
</g>
<!-- arp_output_request -->
<g id="node2" class="node">
<title>arp_output_request</title>
<ellipse fill="none" stroke="black" cx="760.5" cy="-262.03" rx="60.85" ry="18"/>
<text text-anchor="middle" x="760.5" y="-259.46" font-family="sans" font-size="11.00">arp_output_request</text>
</g>
<!-- control_input&#45;&gt;arp_output_request -->
<g id="edge1" class="edge">
<title>control_input&#45;&gt;arp_output_request</title>
<path fill="none" stroke="blue" stroke-width="2" d="M398,-244.98C466.65,-248.21 605.22,-254.75 689.44,-258.73"/>
<polygon fill="blue" stroke="blue" stroke-width="2" points="687.04,-262.26 697.19,-259.23 687.37,-255.27 687.04,-262.26"/>
</g>
<!-- icmp_local_send -->
<g id="node3" class="node">
<title>icmp_local_send</title>
<ellipse fill="none" stroke="black" cx="489.82" cy="-289.03" rx="51.2" ry="18"/>
<text text-anchor="middle" x="489.82" y="-286.46" font-family="sans" font-size="11.00">icmp_local_send</text>
</g>
<!-- control_input&#45;&gt;icmp_local_send -->
<g id="edge2" class="edge">
<title>control_input&#45;&gt;icmp_local_send</title>
<path fill="none" stroke="blue" stroke-width="2" d="M389.09,-254.28C405.17,-259.89 424.9,-266.76 442.56,-272.91"/>
<polygon fill="blue" stroke="blue" stroke-width="2" points="440.07,-276.45 450.67,-276.44 442.38,-269.84 440.07,-276.45"/>
</g>
<!-- ndp_ns_output -->
<g id="node4" class="node">
<title>ndp_ns_output</title>
<ellipse fill="none" stroke="black" cx="489.82" cy="-197.03" rx="46.82" ry="18"/>
<text text-anchor="middle" x="489.82" y="-194.46" font-family="sans" font-size="11.00">ndp_ns_output</text>
</g>
<!-- control_input&#45;&gt;ndp_ns_output -->
<g id="edge3" class="edge">
<title>control_input&#45;&gt;ndp_ns_output</title>
<path fill="none" stroke="blue" stroke-width="2" d="M389.09,-231.78C405.55,-226.04 425.84,-218.97 443.81,-212.71"/>
<polygon fill="blue" stroke="blue" stroke-width="2" points="443.79,-215.73 452.08,-209.13 441.49,-209.12 443.79,-215.73"/>
</g>
<!-- eth_output -->
<g id="node10" class="node">
<title>eth_output</title>
<ellipse fill="none" stroke="black" cx="893.65" cy="-303.03" rx="34.55" ry="18"/>
<text text-anchor="middle" x="893.65" y="-300.46" font-family="sans" font-size="11.00">eth_output</text>
</g>
<!-- arp_output_request&#45;&gt;eth_output -->
<g id="edge12" class="edge">
<title>arp_output_request&#45;&gt;eth_output</title>
<path fill="none" stroke="black" d="M803.36,-275.12C819.32,-280.11 837.44,-285.77 853.17,-290.69"/>
<polygon fill="black" stroke="black" points="852.04,-294.31 862.62,-293.96 854.12,-287.63 852.04,-294.31"/>
</g>
<!-- icmp_output -->
<g id="node16" class="node">
<title>icmp_output</title>
<ellipse fill="none" stroke="black" cx="620.34" cy="-387.03" rx="39.81" ry="18"/>
<text text-anchor="middle" x="620.34" y="-384.46" font-family="sans" font-size="11.00">icmp_output</text>
</g>
<!-- icmp_local_send&#45;&gt;icmp_output -->
<g id="edge15" class="edge">
<title>icmp_local_send&#45;&gt;icmp_output</title>
<path fill="none" stroke="black" d="M509.8,-305.79C526.92,-320.64 553.03,-342.59 577.02,-360.03 580.08,-362.25 583.31,-364.49 586.57,-366.68"/>
<polygon fill="black" stroke="black" points="584.44,-370.13 594.72,-372.67 588.27,-364.27 584.44,-370.13"/>
</g>
<!-- ip6_output -->
<g id="node25" class="node">
<title>ip6_output</title>
<ellipse fill="none" stroke="black" cx="760.5" cy="-132.03" rx="34.11" ry="18"/>
<text text-anchor="middle" x="760.5" y="-129.46" font-family="sans" font-size="11.00">ip6_output</text>
</g>
<!-- ndp_ns_output&#45;&gt;ip6_output -->
<g id="edge35" class="edge">
<title>ndp_ns_output&#45;&gt;ip6_output</title>
<path fill="none" stroke="black" d="M536.55,-199.61C571.96,-200.31 621.86,-198.43 663.66,-186.03 687.83,-178.86 712.55,-164.73 730.83,-152.72"/>
<polygon fill="black" stroke="black" points="732.44,-155.18 738.77,-146.68 728.53,-149.38 732.44,-155.18"/>
</g>
<!-- control_output -->
<g id="node5" class="node">
<title>control_output</title>
<ellipse fill="none" stroke="black" cx="489.82" cy="-381.03" rx="46.38" ry="18"/>
<text text-anchor="middle" x="489.82" y="-378.46" font-family="sans" font-size="11.00">control_output</text>
</g>
<!-- eth_input -->
<g id="node6" class="node">
<title>eth_input</title>
<ellipse fill="none" stroke="black" cx="120.17" cy="-335.03" rx="30.17" ry="18"/>
<text text-anchor="middle" x="120.17" y="-332.46" font-family="sans" font-size="11.00">eth_input</text>
</g>
<!-- arp_input -->
<g id="node7" class="node">
<title>arp_input</title>
<ellipse fill="none" stroke="black" cx="620.34" cy="-333.03" rx="30.61" ry="18"/>
<text text-anchor="middle" x="620.34" y="-330.46" font-family="sans" font-size="11.00">arp_input</text>
</g>
<!-- eth_input&#45;&gt;arp_input -->
<g id="edge4" class="edge">
<title>eth_input&#45;&gt;arp_input</title>
<path fill="none" stroke="black" d="M150.47,-334.91C235.24,-334.57 480.85,-333.59 578.56,-333.2"/>
<polygon fill="black" stroke="black" points="578.46,-336.69 588.45,-333.15 578.43,-329.69 578.46,-336.69"/>
</g>
<!-- ip_input -->
<g id="node8" class="node">
<title>ip_input</title>
<ellipse fill="none" stroke="black" cx="489.82" cy="-477.03" rx="27" ry="18"/>
<text text-anchor="middle" x="489.82" y="-474.46" font-family="sans" font-size="11.00">ip_input</text>
</g>
<!-- eth_input&#45;&gt;ip_input -->
<g id="edge5" class="edge">
<title>eth_input&#45;&gt;ip_input</title>
<path fill="none" stroke="black" d="M124.99,-353.15C131.93,-381.33 149.47,-435.2 186.34,-462.03 266.58,-520.43 392.93,-500.87 453.78,-486.56"/>
<polygon fill="black" stroke="black" points="454.47,-489.75 463.35,-483.97 452.81,-482.95 454.47,-489.75"/>
</g>
<!-- ip6_input -->
<g id="node9" class="node">
<title>ip6_input</title>
<ellipse fill="none" stroke="black" cx="229.65" cy="-105.03" rx="29.73" ry="18"/>
<text text-anchor="middle" x="229.65" y="-102.46" font-family="sans" font-size="11.00">ip6_input</text>
</g>
<!-- eth_input&#45;&gt;ip6_input -->
<g id="edge6" class="edge">
<title>eth_input&#45;&gt;ip6_input</title>
<path fill="none" stroke="black" d="M129.25,-317.74C147.81,-278.03 193.6,-180.05 215.96,-132.2"/>
<polygon fill="black" stroke="black" points="219.42,-134.06 220.48,-123.52 213.08,-131.1 219.42,-134.06"/>
</g>
<!-- arp_output_reply -->
<g id="node13" class="node">
<title>arp_output_reply</title>
<ellipse fill="none" stroke="black" cx="760.5" cy="-325.03" rx="52.96" ry="18"/>
<text text-anchor="middle" x="760.5" y="-322.46" font-family="sans" font-size="11.00">arp_output_reply</text>
</g>
<!-- arp_input&#45;&gt;arp_output_reply -->
<g id="edge9" class="edge">
<title>arp_input&#45;&gt;arp_output_reply</title>
<path fill="none" stroke="black" d="M650.98,-331.32C664.44,-330.54 680.92,-329.58 696.92,-328.66"/>
<polygon fill="black" stroke="black" points="697.1,-332.09 706.88,-328.02 696.69,-325.1 697.1,-332.09"/>
</g>
<!-- ip_output -->
<g id="node14" class="node">
<title>ip_output</title>
<ellipse fill="none" stroke="black" cx="760.5" cy="-384.03" rx="30.61" ry="18"/>
<text text-anchor="middle" x="760.5" y="-381.46" font-family="sans" font-size="11.00">ip_output</text>
</g>
<!-- arp_input&#45;&gt;ip_output -->
<g id="edge10" class="edge">
<title>arp_input&#45;&gt;ip_output</title>
<path fill="none" stroke="black" d="M647,-342.5C668.62,-350.48 699.78,-361.99 723.82,-370.86"/>
<polygon fill="black" stroke="black" points="722.38,-374.43 732.98,-374.61 724.81,-367.86 722.38,-374.43"/>
</g>
<!-- ip_forward -->
<g id="node17" class="node">
<title>ip_forward</title>
<ellipse fill="none" stroke="black" cx="620.34" cy="-461.03" rx="34.55" ry="18"/>
<text text-anchor="middle" x="620.34" y="-458.46" font-family="sans" font-size="11.00">ip_forward</text>
</g>
<!-- ip_input&#45;&gt;ip_forward -->
<g id="edge18" class="edge">
<title>ip_input&#45;&gt;ip_forward</title>
<path fill="none" stroke="black" d="M516.83,-473.79C533.71,-471.69 556.12,-468.9 575.69,-466.47"/>
<polygon fill="black" stroke="black" points="576.02,-469.83 585.51,-465.12 575.15,-462.88 576.02,-469.83"/>
</g>
<!-- ip_input_local -->
<g id="node18" class="node">
<title>ip_input_local</title>
<ellipse fill="none" stroke="black" cx="229.65" cy="-435.03" rx="43.32" ry="18"/>
<text text-anchor="middle" x="229.65" y="-432.46" font-family="sans" font-size="11.00">ip_input_local</text>
</g>
<!-- ip_input&#45;&gt;ip_input_local -->
<g id="edge19" class="edge">
<title>ip_input&#45;&gt;ip_input_local</title>
<path fill="none" stroke="black" d="M462.61,-476.88C427.33,-476.21 362.78,-473.37 308.97,-462.03 296.56,-459.42 283.41,-455.4 271.5,-451.26"/>
<polygon fill="black" stroke="black" points="273,-447.72 262.4,-447.62 270.62,-454.3 273,-447.72"/>
</g>
<!-- ip6_forward -->
<g id="node26" class="node">
<title>ip6_forward</title>
<ellipse fill="none" stroke="black" cx="355.79" cy="-28.03" rx="38.06" ry="18"/>
<text text-anchor="middle" x="355.79" y="-25.46" font-family="sans" font-size="11.00">ip6_forward</text>
</g>
<!-- ip6_input&#45;&gt;ip6_forward -->
<g id="edge29" class="edge">
<title>ip6_input&#45;&gt;ip6_forward</title>
<path fill="none" stroke="black" d="M251.15,-92.32C270.56,-80.28 299.99,-62.03 322.54,-48.04"/>
<polygon fill="black" stroke="black" points="324.08,-50.58 330.73,-42.34 320.39,-44.63 324.08,-50.58"/>
</g>
<!-- ip6_input_local -->
<g id="node27" class="node">
<title>ip6_input_local</title>
<ellipse fill="none" stroke="black" cx="355.79" cy="-105.03" rx="46.82" ry="18"/>
<text text-anchor="middle" x="355.79" y="-102.46" font-family="sans" font-size="11.00">ip6_input_local</text>
</g>
<!-- ip6_input&#45;&gt;ip6_input_local -->
<g id="edge30" class="edge">
<title>ip6_input&#45;&gt;ip6_input_local</title>
<path fill="none" stroke="black" d="M259.76,-105.03C271.18,-105.03 284.7,-105.03 297.9,-105.03"/>
<polygon fill="black" stroke="black" points="297.87,-108.53 307.87,-105.03 297.87,-101.53 297.87,-108.53"/>
</g>
<!-- port_tx -->
<g id="node11" class="node">
<title>port_tx</title>
<ellipse fill="none" stroke="black" cx="992.96" cy="-303.03" rx="27" ry="18"/>
<text text-anchor="middle" x="992.96" y="-300.46" font-family="sans" font-size="11.00">port_tx</text>
</g>
<!-- eth_output&#45;&gt;port_tx -->
<g id="edge7" class="edge">
<title>eth_output&#45;&gt;port_tx</title>
<path fill="none" stroke="black" d="M928.69,-303.03C937.15,-303.03 946.25,-303.03 954.85,-303.03"/>
<polygon fill="black" stroke="black" points="954.77,-306.53 964.77,-303.03 954.77,-299.53 954.77,-306.53"/>
</g>
<!-- port_rx -->
<g id="node12" class="node">
<title>port_rx</title>
<ellipse fill="none" stroke="blue" stroke-width="2" cx="27" cy="-335.03" rx="27" ry="18"/>
<text text-anchor="middle" x="27" y="-332.46" font-family="sans" font-size="11.00">port_rx</text>
</g>
<!-- port_rx&#45;&gt;eth_input -->
<g id="edge8" class="edge">
<title>port_rx&#45;&gt;eth_input</title>
<path fill="none" stroke="blue" stroke-width="2" d="M54.37,-335.03C61.96,-335.03 70.43,-335.03 78.66,-335.03"/>
<polygon fill="blue" stroke="blue" stroke-width="2" points="76.66,-338.53 86.66,-335.03 76.66,-331.53 76.66,-338.53"/>
</g>
<!-- arp_output_reply&#45;&gt;eth_output -->
<g id="edge11" class="edge">
<title>arp_output_reply&#45;&gt;eth_output</title>
<path fill="none" stroke="black" d="M808.48,-317.15C821.92,-314.9 836.49,-312.45 849.67,-310.24"/>
<polygon fill="black" stroke="black" points="850.08,-313.55 859.37,-308.45 848.93,-306.65 850.08,-313.55"/>
</g>
<!-- ip_output&#45;&gt;eth_output -->
<g id="edge22" class="edge">
<title>ip_output&#45;&gt;eth_output</title>
<path fill="none" stroke="black" d="M784.57,-372.46C795.83,-366.62 809.47,-359.26 821.35,-352.03 835.7,-343.3 851.12,-332.84 863.94,-323.84"/>
<polygon fill="black" stroke="black" points="865.63,-326.22 871.76,-317.58 861.58,-320.51 865.63,-326.22"/>
</g>
<!-- ipip_output -->
<g id="node20" class="node">
<title>ipip_output</title>
<ellipse fill="none" stroke="black" cx="893.65" cy="-384.03" rx="36.3" ry="18"/>
<text text-anchor="middle" x="893.65" y="-381.46" font-family="sans" font-size="11.00">ipip_output</text>
</g>
<!-- ip_output&#45;&gt;ipip_output -->
<g id="edge23" class="edge">
<title>ip_output&#45;&gt;ipip_output</title>
<path fill="none" stroke="black" d="M789.96,-378.35C806.96,-377.25 828.93,-377 848.18,-377.6"/>
<polygon fill="black" stroke="black" points="848.01,-381.14 858.15,-378.06 848.3,-374.15 848.01,-381.14"/>
</g>
<!-- icmp_input -->
<g id="node15" class="node">
<title>icmp_input</title>
<ellipse fill="none" stroke="black" cx="355.79" cy="-381.03" rx="35.43" ry="18"/>
<text text-anchor="middle" x="355.79" y="-378.46" font-family="sans" font-size="11.00">icmp_input</text>
</g>
<!-- icmp_input&#45;&gt;control_output -->
<g id="edge14" class="edge">
<title>icmp_input&#45;&gt;control_output</title>
<path fill="none" stroke="black" d="M391.48,-381.03C403.9,-381.03 418.24,-381.03 432.04,-381.03"/>
<polygon fill="black" stroke="black" points="431.94,-384.53 441.94,-381.03 431.94,-377.53 431.94,-384.53"/>
</g>
<!-- icmp_input&#45;&gt;icmp_output -->
<g id="edge13" class="edge">
<title>icmp_input&#45;&gt;icmp_output</title>
<path fill="none" stroke="black" d="M383.89,-392.39C399.57,-398.35 419.86,-405.02 438.61,-408.03 483.55,-415.25 495.9,-413.98 541.02,-408.03 552.88,-406.47 565.5,-403.63 577.07,-400.53"/>
<polygon fill="black" stroke="black" points="577.66,-403.72 586.34,-397.65 575.76,-396.98 577.66,-403.72"/>
</g>
<!-- icmp_output&#45;&gt;ip_output -->
<g id="edge16" class="edge">
<title>icmp_output&#45;&gt;ip_output</title>
<path fill="none" stroke="black" d="M660.56,-386.18C678.8,-385.78 700.47,-385.31 718.87,-384.91"/>
<polygon fill="black" stroke="black" points="718.93,-388.39 728.85,-384.68 718.78,-381.39 718.93,-388.39"/>
</g>
<!-- ip_forward&#45;&gt;ip_output -->
<g id="edge17" class="edge">
<title>ip_forward&#45;&gt;ip_output</title>
<path fill="none" stroke="black" d="M644.78,-447.97C667.75,-435.17 702.91,-415.57 728.25,-401.45"/>
<polygon fill="black" stroke="black" points="729.74,-404.07 736.77,-396.14 726.34,-397.95 729.74,-404.07"/>
</g>
<!-- ip_input_local&#45;&gt;icmp_input -->
<g id="edge20" class="edge">
<title>ip_input_local&#45;&gt;icmp_input</title>
<path fill="none" stroke="black" d="M260.39,-422.1C277.74,-414.55 299.76,-404.97 318.18,-396.96"/>
<polygon fill="black" stroke="black" points="319.48,-399.77 327.26,-392.57 316.69,-393.35 319.48,-399.77"/>
</g>
<!-- ipip_input -->
<g id="node19" class="node">
<title>ipip_input</title>
<ellipse fill="none" stroke="black" cx="355.79" cy="-435.03" rx="31.92" ry="18"/>
<text text-anchor="middle" x="355.79" y="-432.46" font-family="sans" font-size="11.00">ipip_input</text>
</g>
<!-- ip_input_local&#45;&gt;ipip_input -->
<g id="edge21" class="edge">
<title>ip_input_local&#45;&gt;ipip_input</title>
<path fill="none" stroke="black" d="M273.38,-435.03C286.18,-435.03 300.2,-435.03 312.94,-435.03"/>
<polygon fill="black" stroke="black" points="312.75,-438.53 322.75,-435.03 312.75,-431.53 312.75,-438.53"/>
</g>
<!-- ipip_input&#45;&gt;ip_input -->
<g id="edge36" class="edge">
<title>ipip_input&#45;&gt;ip_input</title>
<path fill="none" stroke="black" d="M384.15,-443.73C404.66,-450.26 432.86,-459.23 454.82,-466.22"/>
<polygon fill="black" stroke="black" points="453.45,-469.77 464.04,-469.47 455.57,-463.1 453.45,-469.77"/>
</g>
<!-- ipip_output&#45;&gt;ip_output -->
<g id="edge37" class="edge">
<title>ipip_output&#45;&gt;ip_output</title>
<path fill="none" stroke="black" d="M859.15,-390.01C841.34,-390.94 819.35,-391.03 800.75,-390.27"/>
<polygon fill="black" stroke="black" points="801.13,-386.74 790.96,-389.71 800.76,-393.73 801.13,-386.74"/>
</g>
<!-- icmp6_input -->
<g id="node21" class="node">
<title>icmp6_input</title>
<ellipse fill="none" stroke="black" cx="489.82" cy="-105.03" rx="38.93" ry="18"/>
<text text-anchor="middle" x="489.82" y="-102.46" font-family="sans" font-size="11.00">icmp6_input</text>
</g>
<!-- icmp6_output -->
<g id="node22" class="node">
<title>icmp6_output</title>
<ellipse fill="none" stroke="black" cx="620.34" cy="-159.03" rx="43.32" ry="18"/>
<text text-anchor="middle" x="620.34" y="-156.46" font-family="sans" font-size="11.00">icmp6_output</text>
</g>
<!-- icmp6_input&#45;&gt;icmp6_output -->
<g id="edge24" class="edge">
<title>icmp6_input&#45;&gt;icmp6_output</title>
<path fill="none" stroke="black" d="M519.34,-117.02C536.89,-124.39 559.66,-133.96 579.04,-142.1"/>
<polygon fill="black" stroke="black" points="577.53,-145.68 588.11,-146.33 580.24,-139.23 577.53,-145.68"/>
</g>
<!-- ndp_ns_input -->
<g id="node23" class="node">
<title>ndp_ns_input</title>
<ellipse fill="none" stroke="black" cx="620.34" cy="-105.03" rx="42.44" ry="18"/>
<text text-anchor="middle" x="620.34" y="-102.46" font-family="sans" font-size="11.00">ndp_ns_input</text>
</g>
<!-- icmp6_input&#45;&gt;ndp_ns_input -->
<g id="edge25" class="edge">
<title>icmp6_input&#45;&gt;ndp_ns_input</title>
<path fill="none" stroke="black" d="M529.03,-105.03C540.82,-105.03 554.02,-105.03 566.61,-105.03"/>
<polygon fill="black" stroke="black" points="566.46,-108.53 576.46,-105.03 566.46,-101.53 566.46,-108.53"/>
</g>
<!-- ndp_na_input -->
<g id="node24" class="node">
<title>ndp_na_input</title>
<ellipse fill="none" stroke="black" cx="620.34" cy="-51.03" rx="42.88" ry="18"/>
<text text-anchor="middle" x="620.34" y="-48.46" font-family="sans" font-size="11.00">ndp_na_input</text>
</g>
<!-- icmp6_input&#45;&gt;ndp_na_input -->
<g id="edge26" class="edge">
<title>icmp6_input&#45;&gt;ndp_na_input</title>
<path fill="none" stroke="black" d="M519.34,-93.05C536.89,-85.67 559.66,-76.11 579.04,-67.97"/>
<polygon fill="black" stroke="black" points="580.24,-70.84 588.11,-63.73 577.53,-64.38 580.24,-70.84"/>
</g>
<!-- icmp6_output&#45;&gt;ip6_output -->
<g id="edge27" class="edge">
<title>icmp6_output&#45;&gt;ip6_output</title>
<path fill="none" stroke="black" d="M660.19,-151.44C677.99,-147.96 699.12,-143.83 717.31,-140.28"/>
<polygon fill="black" stroke="black" points="717.77,-143.56 726.91,-138.21 716.43,-136.69 717.77,-143.56"/>
</g>
<!-- ndp_ns_input&#45;&gt;ip6_output -->
<g id="edge34" class="edge">
<title>ndp_ns_input&#45;&gt;ip6_output</title>
<path fill="none" stroke="black" d="M659.46,-112.48C677.4,-115.99 698.86,-120.18 717.29,-123.78"/>
<polygon fill="black" stroke="black" points="716.55,-127.4 727.03,-125.88 717.89,-120.53 716.55,-127.4"/>
</g>
<!-- ndp_na_input&#45;&gt;ip6_output -->
<g id="edge33" class="edge">
<title>ndp_na_input&#45;&gt;ip6_output</title>
<path fill="none" stroke="black" d="M646.36,-65.7C669.15,-79.06 702.93,-98.86 727.64,-113.35"/>
<polygon fill="black" stroke="black" points="725.56,-116.78 735.96,-118.81 729.1,-110.74 725.56,-116.78"/>
</g>
<!-- ip6_output&#45;&gt;eth_output -->
<g id="edge32" class="edge">
<title>ip6_output&#45;&gt;eth_output</title>
<path fill="none" stroke="black" d="M774.32,-148.74C797.43,-178.88 846.22,-242.49 873.38,-277.9"/>
<polygon fill="black" stroke="black" points="870.92,-279.45 879.79,-285.26 876.48,-275.19 870.92,-279.45"/>
</g>
<!-- ip6_forward&#45;&gt;ip6_output -->
<g id="edge28" class="edge">
<title>ip6_forward&#45;&gt;ip6_output</title>
<path fill="none" stroke="black" d="M389.05,-19.09C447.01,-4.83 571.33,17.48 663.66,-24.03 700.35,-40.53 728.71,-78.79 744.76,-105.04"/>
<polygon fill="black" stroke="black" points="742.21,-106.61 750.3,-113.44 748.24,-103.05 742.21,-106.61"/>
</g>
<!-- ip6_input_local&#45;&gt;icmp6_input -->
<g id="edge31" class="edge">
<title>ip6_input_local&#45;&gt;icmp6_input</title>
<path fill="none" stroke="black" d="M402.97,-105.03C414.92,-105.03 427.84,-105.03 439.93,-105.03"/>
<polygon fill="black" stroke="black" points="439.75,-108.53 449.75,-105.03 439.75,-101.53 439.75,-108.53"/>
</g>
</g>
</svg>
